# xmcd CD database file
#
# Track frame offsets:
#	150
#	13967
#	26160
#	37012
#	53157
#	69767
#	83527
#	96270
#	111592
#	123654
#	136282
#	148687
#
# Disc length: 2157 seconds
#
# Revision: 0
# Processed by: cddbd v1.4PL0 Copyright (c) Steve Scherf et al.
# Submitted via: CDex 1.40Beta9
#
DISCID=ab086b0c
DTITLE=John Evans - Biggest Fool In Town
DYEAR=1900
DGENRE=Country
TTITLE0=My Kind Of Love
TTITLE1=Lovesick Fool
TTITLE2=Angel Fan The Fire
TTITLE3=Just Today
TTITLE4=Two Mammas
TTITLE5=Midnight Train
TTITLE6=Cry You A Bayou
TTITLE7=Two Much
TTITLE8=I Still Tast Your Kisses
TTITLE9=Two Swingin´ Doors
TTITLE10=Redneck Muth´r
TTITLE11=Pasa Get Down Dena
EXTD=ID3G: 2
EXTT0=
EXTT1=
EXTT2=
EXTT3=
EXTT4=
EXTT5=
EXTT6=
EXTT7=
EXTT8=
EXTT9=
EXTT10=
EXTT11=
PLAYORDER=
